# xmcd CD database file
#
# Track frame offsets:
#	150
#	18842
#	35645
#	54859
#	80191
#	109265
#	131854
#	170919
#	197463
#	239776
#	263888
#
# Disc length: 3807 seconds
#
# Revision: 0
# Processed by: cddbd v1.4PL0 Copyright (c) Steve Scherf et al.
# Submitted via: CDex 1.50beta9
#
DISCID=9f0edd0b
DTITLE=Uri Caine Trio - Blue Wail
DYEAR=1998
DGENRE=Jazz
TTITLE0=Honeysuckle Rose
TTITLE1=Loose Trade
TTITLE2=The face of space
TTITLE3=Digature of the line
TTITLE4=Blue Wail
TTITLE5=Stain
TTITLE6=Sweet Potato
TTITLE7=Bones Don't Cry
TTITLE8=Poem For Shulamit
TTITLE9=Fireball
TTITLE10=Honeysuckle Rose
EXTD=YEAR: 1998
EXTT0=
EXTT1=
EXTT2=
EXTT3=
EXTT4=
EXTT5=
EXTT6=
EXTT7=
EXTT8=
EXTT9=
EXTT10=
PLAYORDER=
